<svg width="40" height="45" viewBox="0 0 40 45" fill="none" xmlns="http://www.w3.org/2000/svg">
<path d="M31.8518 38.5186C31.8518 37.9325 31.678 37.3597 31.3524 36.8724C31.0268 36.3852 30.5641 36.0054 30.0227 35.7811C29.4813 35.5569 28.8855 35.4982 28.3108 35.6125C27.736 35.7269 27.2081 36.0091 26.7937 36.4234C26.3793 36.8378 26.0971 37.3658 25.9828 37.9405C25.8684 38.5153 25.9271 39.111 26.1514 39.6524C26.3756 40.1938 26.7554 40.6566 27.2427 40.9822C27.7299 41.3077 28.3028 41.4815 28.8888 41.4815C29.6746 41.4815 30.4283 41.1693 30.9839 40.6137C31.5396 40.058 31.8518 39.3044 31.8518 38.5186ZM27.4073 38.5186C27.4073 38.2256 27.4942 37.9391 27.657 37.6955C27.8198 37.4519 28.0512 37.262 28.3219 37.1499C28.5926 37.0377 28.8904 37.0084 29.1778 37.0655C29.4652 37.1227 29.7292 37.2638 29.9364 37.471C30.1436 37.6782 30.2846 37.9422 30.3418 38.2295C30.399 38.5169 30.3696 38.8148 30.2575 39.0855C30.1454 39.3562 29.9555 39.5876 29.7119 39.7504C29.4682 39.9132 29.1818 40 28.8888 40C28.4959 40 28.1191 39.844 27.8412 39.5661C27.5634 39.2883 27.4073 38.9115 27.4073 38.5186Z" fill="black"/>
<path d="M37.8629 37.643C37.6683 37.6164 37.4711 37.6682 37.3147 37.787C37.1583 37.9057 37.0555 38.0817 37.0288 38.2763L36.3903 42.963H25.1851C24.9887 42.963 24.8003 43.041 24.6614 43.1799C24.5224 43.3188 24.4444 43.5072 24.4444 43.7037C24.4444 43.9002 24.5224 44.0886 24.6614 44.2275C24.8003 44.3664 24.9887 44.4444 25.1851 44.4444H37.037C37.2161 44.4445 37.3892 44.3796 37.5242 44.2618C37.6591 44.144 37.7468 43.9812 37.771 43.8037L38.4977 38.4771C38.5108 38.3806 38.5048 38.2825 38.48 38.1884C38.4552 38.0942 38.4121 38.0059 38.3532 37.9284C38.2942 37.851 38.2206 37.7859 38.1364 37.7369C38.0523 37.6879 37.9594 37.656 37.8629 37.643Z" fill="black"/>
<path d="M39.8169 26.9201C39.7474 26.8405 39.6617 26.7767 39.5655 26.733C39.4693 26.6893 39.3648 26.6667 39.2592 26.6667H35.7777L37.0206 20.1386C37.0366 20.0519 37.0366 19.9631 37.0206 19.8764L37.3621 18.2868L38.4681 20.1304L37.5777 24.3119C37.5366 24.504 37.5734 24.7044 37.6801 24.8693C37.7868 25.0342 37.9546 25.15 38.1466 25.1912C38.198 25.202 38.2503 25.2075 38.3029 25.2075C38.4721 25.2072 38.6361 25.149 38.7676 25.0425C38.8992 24.936 38.9903 24.7877 39.0258 24.6223L39.9829 20.1549C40.0228 19.9713 39.991 19.7795 39.894 19.6186L37.6718 15.9149C37.5955 15.7875 37.4828 15.686 37.3481 15.6235C37.2135 15.5609 37.0632 15.5403 36.9166 15.5643C36.7701 15.5882 36.6342 15.6556 36.5265 15.7578C36.4188 15.8599 36.3442 15.9921 36.3125 16.1371L35.7036 18.963L32.8644 17.8275C32.7595 17.7855 32.6464 17.7681 32.5337 17.7766C32.421 17.7851 32.3118 17.8193 32.2144 17.8765C32.1169 17.9336 32.0339 18.0124 31.9715 18.1066C31.9092 18.2008 31.8693 18.308 31.8547 18.4201L31.2399 23.3371L30.7459 23.2134L30.3703 18.4593C30.3552 18.298 30.2875 18.146 30.1777 18.0268L30.3259 16.1193L31.0303 15.9082L32.9829 16.9497C33.0688 16.9973 33.1634 17.0273 33.261 17.0381C33.3586 17.0488 33.4574 17.04 33.5516 17.0121C33.6459 16.9843 33.7336 16.938 33.8097 16.8759C33.8859 16.8139 33.9489 16.7373 33.9952 16.6507C34.0415 16.564 34.07 16.469 34.0793 16.3712C34.0885 16.2734 34.0781 16.1748 34.0489 16.081C34.0196 15.9872 33.972 15.9002 33.9088 15.825C33.8455 15.7499 33.768 15.688 33.6807 15.6431L31.4584 14.4579C31.286 14.3658 31.0842 14.3455 30.897 14.4016L29.4155 14.846C29.2725 14.8888 29.1458 14.9738 29.0519 15.0899C28.9581 15.2059 28.9015 15.3476 28.8896 15.4964L28.7977 16.6416L27.9296 15.7727C27.8545 15.6979 27.7643 15.6401 27.6651 15.6031C27.5658 15.5662 27.4598 15.5509 27.3541 15.5584C27.2484 15.566 27.1456 15.596 27.0526 15.6467C26.9595 15.6973 26.8784 15.7673 26.8148 15.8519L25.9259 17.0371V16.2964C25.9259 15.707 25.6917 15.1418 25.275 14.725C24.8582 14.3083 24.293 14.0742 23.7036 14.0742H22.2222V13.3334C22.2222 12.7441 21.988 12.1788 21.5713 11.7621C21.1545 11.3453 20.5893 11.1112 20 11.1112H16.2963V7.60752L21.9733 3.82234C22.0542 3.76836 22.1237 3.69897 22.1779 3.61812C22.232 3.53727 22.2696 3.44655 22.2887 3.35114C22.3077 3.25573 22.3078 3.15751 22.2889 3.06207C22.27 2.96664 22.2325 2.87586 22.1785 2.79494L20.5355 0.329757C20.4815 0.248814 20.4121 0.179298 20.3313 0.125179C20.2504 0.0710602 20.1597 0.0333982 20.0643 0.0143444C19.9689 -0.00470946 19.8707 -0.00478186 19.7752 0.0141312C19.6798 0.0330443 19.589 0.0705724 19.5081 0.124572L12.8415 4.56901C12.5367 4.77158 12.2869 5.04643 12.1142 5.36904C11.9415 5.69165 11.8514 6.05198 11.8518 6.41789V11.1112H8.14813C7.55876 11.1112 6.99353 11.3453 6.57678 11.7621C6.16004 12.1788 5.92591 12.7441 5.92591 13.3334V14.0742H4.44443C3.85507 14.0742 3.28984 14.3083 2.87309 14.725C2.45634 15.1418 2.22222 15.707 2.22222 16.2964V17.7779C2.22222 17.7927 2.66666 21.6801 2.66666 21.6801C2.6872 21.8607 2.77342 22.0274 2.90891 22.1486C3.04441 22.2697 3.21971 22.3368 3.40147 22.3371C3.4297 22.3372 3.45791 22.3355 3.48592 22.3319C3.68095 22.3096 3.85915 22.2108 3.98137 22.0572C4.1036 21.9036 4.15985 21.7077 4.13777 21.5127L3.79258 18.5186H9.62961C9.82606 18.5186 10.0145 18.4406 10.1534 18.3016C10.2923 18.1627 10.3703 17.9743 10.3703 17.7779C10.3703 17.5814 10.2923 17.393 10.1534 17.2541C10.0145 17.1152 9.82606 17.0371 9.62961 17.0371H3.7037V16.2964C3.7037 16.0999 3.78174 15.9115 3.92065 15.7726C4.05957 15.6337 4.24798 15.5556 4.44443 15.5556H23.7036C23.9001 15.5556 24.0885 15.6337 24.2274 15.7726C24.3663 15.9115 24.4444 16.0999 24.4444 16.2964V17.0371H12.5926C12.3961 17.0371 12.2077 17.1152 12.0688 17.2541C11.9299 17.393 11.8518 17.5814 11.8518 17.7779C11.8518 17.9743 11.9299 18.1627 12.0688 18.3016C12.2077 18.4406 12.3961 18.5186 12.5926 18.5186H24.8148L24.5925 18.8149C24.4828 18.9597 24.4301 19.1397 24.4444 19.3208L24.6666 21.9912L24.3985 21.2342C24.3613 21.1291 24.3009 21.0337 24.2218 20.9552C24.1426 20.8768 24.0468 20.8171 23.9414 20.7808L21.7466 20.0267C21.5609 19.9631 21.3574 19.9758 21.181 20.062C21.0046 20.1483 20.8697 20.301 20.8059 20.4867L20.4051 21.6519L19.9466 20.4727C19.8928 20.334 19.7984 20.2147 19.6758 20.1304C19.5532 20.0461 19.408 20.0007 19.2592 20.0001H16.2963C16.1769 20 16.0592 20.0288 15.9533 20.0839C15.8475 20.1391 15.7565 20.2191 15.6882 20.317C15.6199 20.4149 15.5762 20.5279 15.561 20.6463C15.5458 20.7647 15.5594 20.8851 15.6007 20.9971L16.0622 22.2482C15.8933 22.2371 15.7266 22.2223 15.5555 22.2223H8.14813C6.55005 22.2207 4.98711 22.6913 3.65555 23.5749C3.57447 23.6287 3.50478 23.6979 3.45046 23.7786C3.39614 23.8594 3.35825 23.95 3.33895 24.0454C3.29999 24.238 3.33913 24.4382 3.44777 24.6019C3.55641 24.7657 3.72565 24.8795 3.91825 24.9185C4.11086 24.9575 4.31106 24.9183 4.4748 24.8097C5.56364 24.0874 6.8415 23.7027 8.14813 23.7038H15.5555C17.1948 23.7058 18.776 24.3109 19.9978 25.4037C21.2196 26.4966 21.9966 28.0008 22.1807 29.6297H1.52296C1.63953 28.5813 2.00471 27.5759 2.58814 26.6971C2.68606 26.5333 2.71701 26.3381 2.67455 26.1521C2.63208 25.9661 2.51947 25.8036 2.36019 25.6986C2.20091 25.5935 2.00723 25.554 1.81952 25.5882C1.63182 25.6225 1.46455 25.7278 1.35259 25.8823C0.470079 27.2127 -0.000413951 28.7739 2.73278e-07 30.3704C2.73278e-07 30.5669 0.0780423 30.7553 0.216958 30.8942C0.355873 31.0331 0.544283 31.1112 0.740739 31.1112H0.834072C0.960403 31.6351 1.22106 32.1171 1.59037 32.5097C1.52211 32.7791 1.48557 33.0555 1.48148 33.3334C1.48234 34.2925 1.85701 35.2135 2.52592 35.9008C2.09412 36.1638 1.76733 36.5689 1.60162 37.0465C1.43592 37.5242 1.44163 38.0446 1.61777 38.5186H0.740739C0.544283 38.5186 0.355873 38.5966 0.216958 38.7355C0.0780423 38.8744 2.73278e-07 39.0628 2.73278e-07 39.2593V40.7408C0.00117646 41.7227 0.391764 42.6641 1.08609 43.3584C1.78041 44.0527 2.72178 44.4433 3.7037 44.4445H5.92591C6.12237 44.4445 6.31078 44.3664 6.44969 44.2275C6.58861 44.0886 6.66665 43.9002 6.66665 43.7037C6.66665 43.5073 6.58861 43.3189 6.44969 43.1799C6.31078 43.041 6.12237 42.963 5.92591 42.963H3.7037C3.11433 42.963 2.5491 42.7289 2.13235 42.3121C1.7156 41.8954 1.48148 41.3301 1.48148 40.7408V40H13.1252L13.4955 40.4622C13.5649 40.549 13.6529 40.6191 13.7531 40.6672C13.8532 40.7154 13.9629 40.7404 14.074 40.7404C14.1852 40.7404 14.2948 40.7154 14.395 40.6672C14.4951 40.6191 14.5832 40.549 14.6526 40.4622L17.3933 37.0371H20C20.1964 37.0371 20.3848 37.1151 20.5237 37.254C20.6626 37.3929 20.7407 37.5814 20.7407 37.7778C20.7407 37.9743 20.6626 38.1627 20.5237 38.3016C20.3848 38.4405 20.1964 38.5186 20 38.5186H18.3703C18.1739 38.5186 17.9855 38.5966 17.8465 38.7355C17.7076 38.8744 17.6296 39.0628 17.6296 39.2593C17.6296 39.4557 17.7076 39.6442 17.8465 39.7831C17.9855 39.922 18.1739 40 18.3703 40H22.2222V40.7408C22.2222 41.3301 21.988 41.8954 21.5713 42.3121C21.1545 42.7289 20.5893 42.963 20 42.963H8.88887C8.69241 42.963 8.504 43.041 8.36508 43.1799C8.22617 43.3189 8.14813 43.5073 8.14813 43.7037C8.14813 43.9002 8.22617 44.0886 8.36508 44.2275C8.504 44.3664 8.69241 44.4445 8.88887 44.4445H20C20.9819 44.4433 21.9232 44.0527 22.6176 43.3584C23.3119 42.6641 23.7025 41.7227 23.7036 40.7408V39.2593C23.7036 39.0628 23.6256 38.8744 23.4867 38.7355C23.3478 38.5966 23.1594 38.5186 22.9629 38.5186H22.0859C22.262 38.0446 22.2677 37.5242 22.102 37.0465C21.9363 36.5689 21.6095 36.1638 21.1777 35.9008C21.8466 35.2135 22.2213 34.2925 22.2222 33.3334C22.2199 33.0708 22.1888 32.8092 22.1296 32.5534C22.5664 32.1897 22.8499 31.6747 22.9236 31.1112H22.9629C23.0091 31.1065 23.0548 31.0974 23.0992 31.0838C24.6564 32.5686 26.7376 33.3773 28.8888 33.3334C32.6599 33.3334 35.7814 31.0675 36.2384 28.1482H38.4103L37.4295 35.3393C37.4165 35.4357 37.4226 35.5337 37.4474 35.6278C37.4723 35.7218 37.5154 35.8101 37.5744 35.8874C37.6333 35.9648 37.7069 36.0298 37.791 36.0788C37.8751 36.1277 37.968 36.1596 38.0644 36.1726C38.0974 36.1776 38.1309 36.1801 38.1644 36.18C38.3435 36.1801 38.5166 36.1152 38.6516 35.9974C38.7865 35.8795 38.8742 35.7168 38.8984 35.5393L39.9932 27.5075C40.0075 27.4026 39.9991 27.296 39.9687 27.1947C39.9383 27.0933 39.8866 26.9997 39.8169 26.9201ZM13.3333 6.41789C13.3333 6.29597 13.3634 6.17593 13.4209 6.06842C13.4784 5.96091 13.5615 5.86926 13.6629 5.8016L19.7133 1.76827L20.5355 3.00086L15.1444 6.5927C15.043 6.66037 14.9598 6.75202 14.9023 6.85953C14.8448 6.96704 14.8148 7.08708 14.8148 7.209V11.1112H13.3333V6.41789ZM7.40739 14.0742V13.3334C7.40739 13.137 7.48543 12.9486 7.62435 12.8096C7.76326 12.6707 7.95167 12.5927 8.14813 12.5927H20C20.1964 12.5927 20.3848 12.6707 20.5237 12.8096C20.6626 12.9486 20.7407 13.137 20.7407 13.3334V14.0742H7.40739ZM30.3199 24.6401L31.817 25.0104L31.4407 31.4089C30.9491 31.5862 30.4401 31.7103 29.9221 31.7793L30.3199 24.6401ZM27.4873 17.4245L28.9125 18.8497L29.251 23.0801C29.2301 23.0881 29.2096 23.0973 29.1896 23.1075C29.1025 23.1726 29.0308 23.256 28.9796 23.3519C28.9284 23.4478 28.8989 23.5537 28.8933 23.6623L28.4392 31.8275C27.9387 31.7985 27.4424 31.7196 26.9577 31.5919L25.9466 19.4816L27.4873 17.4245ZM17.3592 21.4816H18.7525L19.4192 23.2001C18.8872 22.9148 18.3249 22.6899 17.7429 22.5297L17.3592 21.4816ZM20.7177 33.1037C20.7298 33.1798 20.7375 33.2565 20.7407 33.3334C20.7407 33.9227 20.5066 34.488 20.0898 34.9047C19.6731 35.3215 19.1078 35.5556 18.5185 35.5556H5.18517C4.61304 35.5536 4.06373 35.331 3.65158 34.9342C3.23944 34.5374 2.99623 33.9969 2.97259 33.4252L3.04073 33.46C3.4768 33.6768 3.95712 33.7895 4.44406 33.7895C4.93101 33.7895 5.41133 33.6768 5.84739 33.46L7.03924 32.8675C7.15349 32.8101 7.27956 32.7803 7.40739 32.7803C7.53522 32.7803 7.66129 32.8101 7.77554 32.8675L9.33924 33.6489C9.65961 33.8083 10.0125 33.8912 10.3703 33.8912C10.7281 33.8912 11.0811 33.8083 11.4015 33.6489L12.9629 32.8645C13.0772 32.8072 13.2032 32.7773 13.3311 32.7773C13.4589 32.7773 13.585 32.8072 13.6992 32.8645L15.2629 33.646C15.5833 33.8053 15.9362 33.8882 16.294 33.8882C16.6518 33.8882 17.0048 33.8053 17.3251 33.646L18.8888 32.8645C19.0031 32.8072 19.1292 32.7773 19.257 32.7773C19.3848 32.7773 19.5109 32.8072 19.6251 32.8645C19.9641 33.0328 20.3394 33.115 20.7177 33.1037ZM3.7037 38.5186C3.50724 38.5186 3.31883 38.4405 3.17991 38.3016C3.041 38.1627 2.96296 37.9743 2.96296 37.7778C2.96296 37.5814 3.041 37.3929 3.17991 37.254C3.31883 37.1151 3.50724 37.0371 3.7037 37.0371H10.7548L11.94 38.5186H3.7037ZM14.074 38.8148L12.6526 37.0371H15.4955L14.074 38.8148ZM21.0911 31.5038C21.0637 31.5185 21.0355 31.5316 21.0066 31.543C21.0009 31.5426 20.9952 31.5426 20.9896 31.543C20.9799 31.5467 20.9748 31.5549 20.9651 31.5586C20.8579 31.6045 20.7419 31.6264 20.6253 31.6227C20.5087 31.619 20.3944 31.5898 20.2903 31.5371C19.9699 31.3778 19.617 31.2948 19.2592 31.2948C18.9014 31.2948 18.5485 31.3778 18.2281 31.5371L16.6666 32.3208C16.5524 32.3781 16.4263 32.408 16.2985 32.408C16.1706 32.408 16.0446 32.3781 15.9303 32.3208L14.3666 31.5393C14.0463 31.38 13.6933 31.2971 13.3355 31.2971C12.9777 31.2971 12.6248 31.38 12.3044 31.5393L10.7407 32.3208C10.6265 32.3781 10.5004 32.408 10.3726 32.408C10.2447 32.408 10.1187 32.3781 10.0044 32.3208L8.44072 31.5393C8.12035 31.38 7.76741 31.2971 7.40961 31.2971C7.05181 31.2971 6.69887 31.38 6.3785 31.5393L5.1874 32.1319C4.95722 32.2463 4.70369 32.3058 4.44666 32.3058C4.18963 32.3058 3.93609 32.2463 3.70592 32.1319L3.13777 31.8519C2.82149 31.6903 2.56622 31.4303 2.41036 31.1112H21.4162C21.3529 31.2734 21.2388 31.4109 21.0911 31.503V31.5038ZM23.6474 29.4452C23.5135 28.2769 23.1265 27.1517 22.5133 26.1482L21.5207 22.9712L21.9688 21.6653L23.1251 22.063L25.1533 27.7904L25.4192 30.9801C24.7186 30.611 24.1123 30.0856 23.6474 29.4445V29.4452ZM32.971 30.6215L33.3333 24.4882C33.3434 24.3158 33.293 24.1453 33.1907 24.0061C33.0885 23.8669 32.9408 23.7678 32.7733 23.726L32.6903 23.7038L33.2088 19.5616L35.454 20.4601L33.6251 30.0675C33.4225 30.2694 33.2038 30.4545 32.971 30.6208V30.6215Z" fill="black"/>
<path d="M13.3333 27.4074C13.7424 27.4074 14.0741 27.0758 14.0741 26.6667C14.0741 26.2576 13.7424 25.926 13.3333 25.926C12.9242 25.926 12.5926 26.2576 12.5926 26.6667C12.5926 27.0758 12.9242 27.4074 13.3333 27.4074Z" fill="black"/>
<path d="M10.3703 26.6667C10.7794 26.6667 11.1111 26.3351 11.1111 25.926C11.1111 25.5169 10.7794 25.1852 10.3703 25.1852C9.96122 25.1852 9.62958 25.5169 9.62958 25.926C9.62958 26.3351 9.96122 26.6667 10.3703 26.6667Z" fill="black"/>
<path d="M8.14815 28.1482C8.55725 28.1482 8.88889 27.8166 8.88889 27.4075C8.88889 26.9984 8.55725 26.6667 8.14815 26.6667C7.73905 26.6667 7.40741 26.9984 7.40741 27.4075C7.40741 27.8166 7.73905 28.1482 8.14815 28.1482Z" fill="black"/>
<path d="M19.2592 28.1482C19.6683 28.1482 20 27.8166 20 27.4075C20 26.9984 19.6683 26.6667 19.2592 26.6667C18.8501 26.6667 18.5185 26.9984 18.5185 27.4075C18.5185 27.8166 18.8501 28.1482 19.2592 28.1482Z" fill="black"/>
<path d="M5.1852 27.4074C5.5943 27.4074 5.92594 27.0758 5.92594 26.6667C5.92594 26.2576 5.5943 25.926 5.1852 25.926C4.7761 25.926 4.44446 26.2576 4.44446 26.6667C4.44446 27.0758 4.7761 27.4074 5.1852 27.4074Z" fill="black"/>
<path d="M16.2963 26.6667C16.7054 26.6667 17.037 26.3351 17.037 25.926C17.037 25.5169 16.7054 25.1852 16.2963 25.1852C15.8872 25.1852 15.5555 25.5169 15.5555 25.926C15.5555 26.3351 15.8872 26.6667 16.2963 26.6667Z" fill="black"/>
</svg>
