<svg width="124" height="40" viewBox="0 0 124 40" fill="none" xmlns="http://www.w3.org/2000/svg">
<path d="M3.358 27C3.20467 27 3.128 26.931 3.128 26.793L2.07 11.153C2.07 11.0763 2.093 11.015 2.139 10.969C2.185 10.923 2.23867 10.9 2.3 10.9H4.071C4.209 10.9 4.28567 10.969 4.301 11.107L4.784 21.894C4.784 21.9247 4.79167 21.94 4.807 21.94C4.83767 21.94 4.86067 21.9247 4.876 21.894L7.797 11.107C7.843 10.969 7.92733 10.9 8.05 10.9H9.545C9.66767 10.9 9.729 10.969 9.729 11.107L10.12 21.894C10.1353 21.9247 10.1507 21.94 10.166 21.94C10.1813 21.94 10.1967 21.9247 10.212 21.894L13.202 11.107C13.2327 10.969 13.317 10.9 13.455 10.9H15.18C15.3333 10.9 15.3947 10.9843 15.364 11.153L10.626 26.793C10.58 26.931 10.488 27 10.35 27H8.763C8.64033 27 8.579 26.931 8.579 26.793L8.211 15.914C8.19567 15.8833 8.17267 15.868 8.142 15.868C8.12667 15.868 8.119 15.8833 8.119 15.914L5.175 26.793C5.129 26.931 5.04467 27 4.922 27H3.358ZM21.1537 15.523C21.169 15.4617 21.1997 15.408 21.2457 15.362C21.2917 15.316 21.3454 15.293 21.4067 15.293H23.1087C23.2467 15.293 23.3157 15.3697 23.3157 15.523L21.9127 26.77C21.9127 26.8313 21.8897 26.885 21.8437 26.931C21.7977 26.977 21.744 27 21.6827 27H19.9807C19.8427 27 19.7737 26.9233 19.7737 26.77L19.8887 25.965C19.8887 25.919 19.8734 25.896 19.8427 25.896C19.8274 25.8807 19.8044 25.8883 19.7737 25.919C19.4824 26.3483 19.1297 26.6703 18.7157 26.885C18.3017 27.0843 17.8647 27.184 17.4047 27.184C16.5614 27.184 15.9174 26.931 15.4727 26.425C15.028 25.9037 14.8057 25.1907 14.8057 24.286C14.8057 24.148 14.821 23.895 14.8517 23.527L15.4267 18.766C15.5647 17.6313 15.9327 16.742 16.5307 16.098C17.144 15.4387 17.9337 15.109 18.8997 15.109C19.3444 15.109 19.743 15.2163 20.0957 15.431C20.4637 15.6303 20.7474 15.9447 20.9467 16.374C20.9774 16.4047 21.0004 16.42 21.0157 16.42C21.0464 16.4047 21.0617 16.374 21.0617 16.328L21.1537 15.523ZM18.3707 25.275C18.846 25.275 19.2524 25.0987 19.5897 24.746C19.927 24.3933 20.1264 23.941 20.1877 23.389L20.7397 18.904C20.755 18.8273 20.7627 18.72 20.7627 18.582C20.7627 18.1067 20.64 17.731 20.3947 17.455C20.1494 17.1637 19.8197 17.018 19.4057 17.018C18.9304 17.018 18.524 17.1943 18.1867 17.547C17.8494 17.8997 17.6424 18.352 17.5657 18.904L17.0137 23.389C16.9984 23.4657 16.9907 23.573 16.9907 23.711C16.9907 24.171 17.1134 24.5467 17.3587 24.838C17.6194 25.1293 17.9567 25.275 18.3707 25.275ZM23.683 31.577C23.6063 31.577 23.568 31.5003 23.568 31.347L23.752 29.99C23.752 29.9287 23.775 29.875 23.821 29.829C23.867 29.783 23.9207 29.76 23.982 29.76C24.4573 29.7447 24.8407 29.668 25.132 29.53C25.4233 29.392 25.6763 29.1313 25.891 28.748C26.121 28.3647 26.3433 27.805 26.558 27.069L26.535 26.954L25.086 15.546V15.5C25.086 15.4387 25.109 15.3927 25.155 15.362C25.201 15.316 25.2547 15.293 25.316 15.293H27.156C27.294 15.293 27.363 15.362 27.363 15.5L27.984 23.803C27.984 23.849 27.9917 23.872 28.007 23.872C28.0377 23.872 28.0607 23.849 28.076 23.803L30.698 15.5C30.744 15.362 30.836 15.293 30.974 15.293L32.814 15.316C32.8907 15.316 32.9443 15.339 32.975 15.385C33.0057 15.431 33.0057 15.4923 32.975 15.569L28.398 27.805C27.9993 28.863 27.6237 29.645 27.271 30.151C26.9183 30.6723 26.4813 31.0403 25.96 31.255C25.4387 31.4697 24.718 31.577 23.798 31.577H23.683ZM36.3378 27.138C35.3258 27.138 34.5285 26.9003 33.9458 26.425C33.3632 25.9497 33.0718 25.298 33.0718 24.47C33.0718 24.2707 33.0795 24.125 33.0948 24.033L33.1178 23.826C33.1332 23.7647 33.1638 23.711 33.2098 23.665C33.2558 23.619 33.3095 23.596 33.3708 23.596H34.9578C35.0345 23.596 35.0882 23.619 35.1188 23.665C35.1648 23.711 35.1802 23.7647 35.1648 23.826L35.1418 23.987C35.0805 24.401 35.1878 24.7537 35.4638 25.045C35.7398 25.321 36.1155 25.459 36.5908 25.459C37.0815 25.459 37.4802 25.3057 37.7868 24.999C38.1088 24.677 38.2698 24.286 38.2698 23.826C38.2698 23.3967 38.1165 23.0747 37.8098 22.86C37.5032 22.63 37.0125 22.3617 36.3378 22.055C35.8472 21.825 35.4332 21.6027 35.0958 21.388C34.7738 21.1733 34.4825 20.8667 34.2218 20.468C33.9765 20.0693 33.8538 19.5787 33.8538 18.996C33.8538 18.7813 33.8615 18.6127 33.8768 18.49C33.9995 17.4473 34.4135 16.6347 35.1188 16.052C35.8242 15.4693 36.7135 15.178 37.7868 15.178C38.7835 15.178 39.5578 15.431 40.1098 15.937C40.6618 16.4277 40.9378 17.11 40.9378 17.984C40.9378 18.214 40.9302 18.3903 40.9148 18.513V18.582C40.8842 18.7353 40.7998 18.812 40.6618 18.812H39.1208C38.9675 18.812 38.9062 18.7353 38.9368 18.582V18.421L38.9598 18.214C38.9598 17.846 38.8372 17.5393 38.5918 17.294C38.3465 17.0487 38.0168 16.926 37.6028 16.926C37.1582 16.926 36.7825 17.0717 36.4758 17.363C36.1692 17.6543 35.9852 18.007 35.9238 18.421C35.8932 18.743 35.9545 19.0113 36.1078 19.226C36.2612 19.4407 36.4528 19.617 36.6828 19.755C36.9282 19.8777 37.3115 20.0617 37.8328 20.307C38.3542 20.5677 38.7835 20.813 39.1208 21.043C39.4735 21.2577 39.7802 21.5643 40.0408 21.963C40.3015 22.3617 40.4318 22.8447 40.4318 23.412C40.4318 24.5313 40.0562 25.436 39.3048 26.126C38.5535 26.8007 37.5645 27.138 36.3378 27.138ZM51.4258 12.579C51.3952 12.7323 51.3108 12.809 51.1728 12.809H46.1588C46.1435 12.809 46.1205 12.8167 46.0898 12.832C46.0745 12.8473 46.0668 12.8703 46.0668 12.901L45.4458 17.892C45.4458 17.9533 45.4765 17.984 45.5378 17.984H48.5968C48.7502 17.984 48.8115 18.0607 48.7808 18.214L48.5968 19.663C48.5968 19.7243 48.5738 19.778 48.5278 19.824C48.4818 19.87 48.4282 19.893 48.3668 19.893H45.3078C45.2618 19.893 45.2235 19.9237 45.1928 19.985L44.3648 26.77C44.3342 26.9233 44.2498 27 44.1118 27H42.4098C42.3485 27 42.2948 26.977 42.2488 26.931C42.2182 26.885 42.2105 26.8313 42.2258 26.77L44.1348 11.13C44.1502 11.0687 44.1808 11.015 44.2268 10.969C44.2728 10.923 44.3265 10.9 44.3878 10.9H51.4028C51.5562 10.9 51.6175 10.9767 51.5868 11.13L51.4258 12.579ZM54.2351 27.184C53.1771 27.184 52.3491 26.908 51.7511 26.356C51.1684 25.804 50.8771 25.0527 50.8771 24.102C50.8771 23.9947 50.8924 23.803 50.9231 23.527L51.4981 18.766C51.6361 17.6773 52.0884 16.7957 52.8551 16.121C53.6217 15.4463 54.5801 15.109 55.7301 15.109C56.7881 15.109 57.6161 15.3927 58.2141 15.96C58.8121 16.512 59.1111 17.2557 59.1111 18.191C59.1111 18.2983 59.0957 18.49 59.0651 18.766L58.4901 23.527C58.3521 24.631 57.8997 25.5203 57.1331 26.195C56.3664 26.8543 55.4004 27.184 54.2351 27.184ZM54.4881 25.252C54.9634 25.252 55.3774 25.0757 55.7301 24.723C56.0827 24.3703 56.2897 23.918 56.3511 23.366L56.9031 18.904C56.9184 18.8273 56.9261 18.7277 56.9261 18.605C56.9261 18.1297 56.7957 17.7463 56.5351 17.455C56.2744 17.1637 55.9294 17.018 55.5001 17.018C55.0247 17.018 54.6107 17.1943 54.2581 17.547C53.9207 17.8997 53.7137 18.352 53.6371 18.904L53.0851 23.366C53.0697 23.4427 53.0621 23.55 53.0621 23.688C53.0621 24.1633 53.1924 24.5467 53.4531 24.838C53.7137 25.114 54.0587 25.252 54.4881 25.252ZM63.9436 27.184C62.8856 27.184 62.0576 26.908 61.4596 26.356C60.8769 25.804 60.5856 25.0527 60.5856 24.102C60.5856 23.9947 60.6009 23.803 60.6316 23.527L61.2066 18.766C61.3446 17.6773 61.7969 16.7957 62.5636 16.121C63.3303 15.4463 64.2886 15.109 65.4386 15.109C66.4966 15.109 67.3246 15.3927 67.9226 15.96C68.5206 16.512 68.8196 17.2557 68.8196 18.191C68.8196 18.2983 68.8043 18.49 68.7736 18.766L68.1986 23.527C68.0606 24.631 67.6083 25.5203 66.8416 26.195C66.0749 26.8543 65.1089 27.184 63.9436 27.184ZM64.1966 25.252C64.6719 25.252 65.0859 25.0757 65.4386 24.723C65.7913 24.3703 65.9983 23.918 66.0596 23.366L66.6116 18.904C66.6269 18.8273 66.6346 18.7277 66.6346 18.605C66.6346 18.1297 66.5043 17.7463 66.2436 17.455C65.9829 17.1637 65.6379 17.018 65.2086 17.018C64.7333 17.018 64.3193 17.1943 63.9666 17.547C63.6293 17.8997 63.4223 18.352 63.3456 18.904L62.7936 23.366C62.7783 23.4427 62.7706 23.55 62.7706 23.688C62.7706 24.1633 62.9009 24.5467 63.1616 24.838C63.4223 25.114 63.7673 25.252 64.1966 25.252ZM77.1941 11.13C77.2248 10.9767 77.3091 10.9 77.4471 10.9H79.1491C79.2104 10.9 79.2564 10.923 79.2871 10.969C79.3331 11.015 79.3484 11.0687 79.3331 11.13L77.4011 26.77C77.4011 26.8313 77.3781 26.885 77.3321 26.931C77.2861 26.977 77.2324 27 77.1711 27H75.4691C75.3311 27 75.2621 26.9233 75.2621 26.77L75.3081 26.402C75.3234 26.3713 75.3158 26.3483 75.2851 26.333C75.2698 26.3177 75.2468 26.3253 75.2161 26.356C74.8941 26.632 74.5414 26.839 74.1581 26.977C73.7901 27.115 73.4298 27.184 73.0771 27.184C72.2031 27.184 71.5208 26.9157 71.0301 26.379C70.5394 25.8423 70.2941 25.1217 70.2941 24.217C70.2941 24.079 70.3094 23.8567 70.3401 23.55L70.9151 18.766C71.0531 17.6313 71.4518 16.742 72.1111 16.098C72.7704 15.4387 73.5831 15.109 74.5491 15.109C74.9018 15.109 75.2468 15.178 75.5841 15.316C75.9368 15.454 76.2358 15.661 76.4811 15.937C76.5118 15.9677 76.5348 15.9753 76.5501 15.96C76.5808 15.9447 76.5961 15.9217 76.5961 15.891L77.1941 11.13ZM73.8591 25.275C74.2884 25.275 74.6641 25.137 74.9861 24.861C75.3081 24.5697 75.5304 24.194 75.6531 23.734L76.2741 18.559C76.2741 18.099 76.1438 17.731 75.8831 17.455C75.6378 17.1637 75.3081 17.018 74.8941 17.018C74.4188 17.018 74.0048 17.1943 73.6521 17.547C73.3148 17.8997 73.1078 18.352 73.0311 18.904L72.4791 23.389C72.4638 23.4657 72.4561 23.573 72.4561 23.711C72.4561 24.171 72.5788 24.5467 72.8241 24.838C73.0848 25.1293 73.4298 25.275 73.8591 25.275Z" fill="black"/>
<g clip-path="url(#clip0_86_2)">
<path d="M120.806 33.125C121.619 32.33 122.125 31.2237 122.125 30C122.125 27.8719 120.597 26.0956 118.581 25.7062C118.775 24.925 119 23.5325 119 21.25C119 18.6412 117.092 16.495 116.151 15.5937C116.367 15.22 116.5 14.7925 116.5 14.3312C116.5 13.8275 116.353 13.34 116.073 12.92C115.584 12.1887 114.83 11.7219 114 11.5806V10.1519C114 9.48437 113.74 8.85687 113.267 8.38375L112.096 7.21187C111.956 6.31562 111.186 5.625 110.25 5.625C109.216 5.625 108.375 6.46625 108.375 7.5C108.375 8.53375 109.216 9.375 110.25 9.375C110.861 9.375 111.398 9.0775 111.741 8.62437L112.384 9.2675C112.62 9.50437 112.75 9.81812 112.75 10.1519V11.6131L111.378 11.8875V11.8881C111.34 11.885 111.304 11.875 111.266 11.875H107.104C106.761 11.875 106.482 11.5944 106.482 11.25V10.1681C106.482 9.31187 106.146 8.5375 105.609 7.95125C106.848 7.53625 107.75 6.3775 107.75 5V4.375H109V3.125H107.668C107.366 1.80437 106.271 0.767499 104.929 0.639374C104.055 0.556874 103.172 0.846249 102.522 1.43687C101.872 2.0275 101.5 2.87125 101.5 3.75V5C101.5 5.77062 101.791 6.46812 102.256 7.01375C101.366 7.28125 100.611 7.91937 100.211 8.78812L97.4181 14.8525C97.2262 15.2687 97.125 15.73 97.125 16.1875C97.125 16.9175 97.3762 17.5887 97.7944 18.125H97.0094C97.08 17.9287 97.125 17.72 97.125 17.5V16.1875V10C97.125 8.96625 96.2838 8.125 95.25 8.125H87.75C86.7162 8.125 85.875 8.96625 85.875 10V17.5C85.875 18.5337 86.7162 19.375 87.75 19.375H93.2212C92.9344 19.8219 92.75 20.4244 92.75 21.25C92.75 22.6906 94.1519 23.6681 95.6363 24.7031C96.1544 25.0644 96.6781 25.4294 97.1531 25.8162C96.7481 25.6925 96.3194 25.625 95.875 25.625C93.4631 25.625 91.5 27.5875 91.5 30C91.5 31.2237 92.0063 32.33 92.8194 33.125H84.625V34.375H100.875V33.125H98.9306C99.2506 32.8119 99.5231 32.4506 99.7362 32.0519C100.189 32.27 100.938 32.5 102.125 32.5C103.185 32.5 104.562 32.3912 106.157 32.2656C108.308 32.0956 110.973 31.8862 113.804 31.8769C114.027 32.3444 114.328 32.7669 114.694 33.125H109.625V34.375H123.375V33.125H120.806ZM110.25 8.125C109.905 8.125 109.625 7.84437 109.625 7.5C109.625 7.15562 109.905 6.875 110.25 6.875C110.595 6.875 110.875 7.15562 110.875 7.5C110.875 7.84437 110.595 8.125 110.25 8.125ZM104.008 28.125C103.719 28.1175 103.375 28.0031 103.375 27.5C103.375 26.3381 104.031 25.2775 104.666 24.2519C105.014 23.6887 105.348 23.1425 105.577 22.5869C105.753 22.9531 105.855 23.3425 105.855 23.7569L105.884 26.25H105.875V27.5C105.875 27.72 105.92 27.9287 105.99 28.125H104.008ZM94.2213 21.875C94.0825 21.6656 94 21.4575 94 21.25C94 19.5094 95.0188 19.375 96.4581 19.375H100.239C101.884 19.72 103.534 20.4025 104.616 21.3606C104.604 21.5269 104.568 21.6981 104.51 21.875H94.2213ZM98.4569 15.6631L104.091 17.0362C106.614 17.6556 108.375 19.8769 108.375 22.4375V25.625H107.126L107.105 23.75C107.105 20.6356 103.498 18.64 99.9238 18.0431C99.0263 17.8937 98.375 17.1131 98.375 16.1875C98.375 16.0106 98.4088 15.835 98.4569 15.6631ZM107.125 27.5V26.875H108.375C108.876 26.875 109.384 27.165 109.584 27.5656C109.611 27.6194 109.625 27.6794 109.625 27.7387C109.625 27.9519 109.453 28.125 109.241 28.125H107.75C107.405 28.125 107.125 27.8444 107.125 27.5ZM110.702 27.0075C110.476 26.5531 110.089 26.185 109.625 25.9419V22.4375C109.625 19.6287 107.897 17.1594 105.324 16.1281L105.533 15.5012C105.843 15.5825 106.161 15.625 106.48 15.625H109.391C109.507 15.625 109.621 15.6175 109.735 15.6081C109.989 16.3425 110.68 16.875 111.5 16.875L110.691 17.9537C110.407 18.3331 110.25 18.8031 110.25 19.2769C110.25 19.8662 110.488 20.4275 110.918 20.8581C111.369 21.3081 112.125 22.2825 112.125 23.75C112.125 25.55 111.419 27.3831 111.098 28.125H110.824C110.854 28.0006 110.875 27.8725 110.875 27.7387C110.875 27.4862 110.815 27.2331 110.702 27.0075ZM111.801 19.9731C111.607 19.7787 111.5 19.5319 111.5 19.2769C111.5 19.0719 111.567 18.8681 111.691 18.7037L113.062 16.875H113.148C113.646 17.3131 115.25 18.905 115.25 21.25C115.25 23.8937 114.93 25.9119 114.755 26.82C114.362 27.1906 114.039 27.6325 113.803 28.125H112.451C112.839 27.1325 113.375 25.4569 113.375 23.75C113.375 21.8319 112.389 20.5606 111.801 19.9731V19.9731ZM114.688 29.375C114.769 28.9769 114.928 28.6069 115.146 28.2794L116.063 29.1969C116.036 29.255 116.012 29.3144 115.991 29.375H114.688ZM117.75 30.625C117.405 30.625 117.125 30.3444 117.125 30C117.125 29.6556 117.405 29.375 117.75 29.375C118.095 29.375 118.375 29.6556 118.375 30C118.375 30.3444 118.095 30.625 117.75 30.625ZM118.375 31.76C118.436 31.7381 118.496 31.715 118.553 31.6875L119.471 32.605C119.143 32.8225 118.773 32.9812 118.375 33.0625V31.76ZM120.354 31.7206L119.437 30.8031C119.464 30.745 119.488 30.6856 119.509 30.625H120.811C120.731 31.0231 120.572 31.3931 120.354 31.7206ZM119.51 29.375C119.488 29.3137 119.465 29.2544 119.438 29.1969L120.355 28.2794C120.572 28.6069 120.731 28.9769 120.813 29.375H119.51ZM118.553 28.3131C118.495 28.2856 118.436 28.2619 118.375 28.2406V26.9387C118.773 27.02 119.143 27.1787 119.471 27.3962L118.553 28.3131ZM117.125 28.24C117.064 28.2619 117.004 28.285 116.947 28.3125L116.029 27.395C116.357 27.1775 116.727 27.0187 117.125 26.9375V28.24ZM115.99 30.625C116.012 30.6862 116.035 30.7456 116.062 30.8031L115.145 31.7206C114.928 31.3931 114.769 31.0231 114.687 30.625H115.99ZM116.947 31.6869C117.005 31.7144 117.064 31.7375 117.125 31.7594V33.0612C116.727 32.98 116.357 32.8212 116.029 32.6037L116.947 31.6869ZM117.75 21.25C117.75 23.755 117.463 25.0906 117.3 25.6481C116.906 25.6887 116.53 25.7856 116.174 25.9237C116.336 24.8044 116.5 23.1975 116.5 21.25C116.5 19.2006 115.542 17.6575 114.755 16.7337C114.94 16.6719 115.116 16.5931 115.279 16.4931C116.081 17.2637 117.75 19.1244 117.75 21.25ZM115.033 13.6131C115.175 13.8269 115.25 14.075 115.25 14.3312C115.25 15.045 114.669 15.625 113.956 15.625H111.5C111.272 15.625 111.08 15.4956 110.971 15.3125C111.468 15.1069 111.924 14.8031 112.316 14.4106C112.652 14.0737 112.807 13.5919 112.731 13.1219C112.718 13.0462 112.691 12.975 112.668 12.9031L113.107 12.815C113.854 12.6662 114.61 12.9794 115.033 13.6131ZM107.104 13.125H111.266C111.302 13.125 111.337 13.1337 111.37 13.15C111.463 13.1969 111.489 13.2787 111.497 13.3231C111.504 13.3681 111.506 13.4537 111.431 13.5281C110.886 14.0744 110.161 14.375 109.391 14.375H106.48C105.437 14.375 104.684 13.8444 104.293 12.915L105.759 12.5487C106.099 12.9025 106.575 13.125 107.104 13.125V13.125ZM103.364 2.36187C103.759 2.0025 104.269 1.83187 104.811 1.88375C105.519 1.95187 106.112 2.4525 106.366 3.125H102.858C102.96 2.83562 103.133 2.5725 103.364 2.36187V2.36187ZM102.75 4.375H106.5V5C106.5 6.03375 105.659 6.875 104.625 6.875C103.591 6.875 102.75 6.03375 102.75 5V4.375ZM101.346 9.31125C101.678 8.59062 102.403 8.125 103.195 8.125C104.318 8.125 105.232 9.04125 105.232 10.1681V11.25C105.232 11.2975 105.243 11.3419 105.246 11.3881L104.015 11.6956C104.003 11.5494 103.987 11.4062 103.987 11.25V10.625H102.737V11.25C102.737 13.0837 103.431 14.2994 104.392 14.9744L104.13 15.7594L98.9569 14.4987L101.346 9.31125ZM90.875 9.375H92.125V10.625H90.875V9.375ZM87.125 17.5V10C87.125 9.65562 87.405 9.375 87.75 9.375H89.625V11.875H93.375V9.375H95.25C95.595 9.375 95.875 9.65562 95.875 10V17.5C95.875 17.8444 95.595 18.125 95.25 18.125H87.75C87.405 18.125 87.125 17.8444 87.125 17.5ZM97.635 29.375C97.6131 29.3137 97.59 29.2544 97.5625 29.1969L98.48 28.2794C98.6975 28.6069 98.8562 28.9769 98.9375 29.375H97.635ZM96.5 30C96.5 30.3444 96.22 30.625 95.875 30.625C95.53 30.625 95.25 30.3444 95.25 30C95.25 29.6556 95.53 29.375 95.875 29.375C96.22 29.375 96.5 29.6556 96.5 30ZM96.6781 28.3131C96.62 28.2856 96.5606 28.2619 96.5 28.2406V26.9387C96.8981 27.02 97.2681 27.1787 97.5956 27.3962L96.6781 28.3131ZM95.25 28.24C95.1888 28.2619 95.1294 28.285 95.0719 28.3125L94.1544 27.395C94.4819 27.1775 94.8519 27.0187 95.25 26.9375V28.24ZM94.1881 29.1969C94.1606 29.255 94.1369 29.3144 94.1156 29.375H92.8138C92.895 28.9769 93.0537 28.6069 93.2712 28.2794L94.1881 29.1969ZM94.115 30.625C94.1369 30.6862 94.16 30.7456 94.1875 30.8031L93.27 31.7206C93.0525 31.3931 92.8938 31.0231 92.8125 30.625H94.115ZM95.0719 31.6869C95.13 31.7144 95.1894 31.7375 95.25 31.7594V33.0612C94.8519 32.98 94.4819 32.8212 94.1544 32.6037L95.0719 31.6869ZM96.5 31.76C96.5612 31.7381 96.6206 31.715 96.6781 31.6875L97.5956 32.605C97.2681 32.8225 96.8981 32.9812 96.5 33.0625V31.76ZM98.4794 31.7206L97.5619 30.8031C97.5894 30.745 97.6131 30.6856 97.6344 30.625H98.9363C98.8556 31.0231 98.6969 31.3931 98.4794 31.7206V31.7206ZM100.25 30.915V28.8631C100.25 26.3962 98.0881 24.8887 96.3519 23.6781C96.0844 23.4912 95.8219 23.3075 95.5725 23.125H103.889C103.796 23.2794 103.701 23.4356 103.603 23.5937C102.91 24.7137 102.125 25.9825 102.125 27.5C102.125 28.4037 102.61 28.9237 103.156 29.1781L102.329 31.2456C102.263 31.2462 102.188 31.25 102.125 31.25C101.098 31.25 100.518 31.0456 100.25 30.915ZM106.059 31.0187C105.197 31.0869 104.408 31.1475 103.697 31.1906L104.423 29.375H113.425C113.396 29.58 113.375 29.7875 113.375 30C113.375 30.2144 113.396 30.4237 113.426 30.63C110.69 30.6556 108.136 30.855 106.059 31.0187V31.0187Z" fill="black"/>
<path d="M107.125 33.125H108.375V34.375H107.125V33.125Z" fill="black"/>
<path d="M84.625 38.125H92.125V39.375H84.625V38.125Z" fill="black"/>
<path d="M95.875 38.125H103.375V39.375H95.875V38.125Z" fill="black"/>
<path d="M93.375 38.125H94.625V39.375H93.375V38.125Z" fill="black"/>
<path d="M104.625 38.125H123.375V39.375H104.625V38.125Z" fill="black"/>
<path d="M102.125 33.125H105.875V34.375H102.125V33.125Z" fill="black"/>
</g>
<defs>
<clipPath id="clip0_86_2">
<rect width="40" height="40" fill="white" transform="translate(84)"/>
</clipPath>
</defs>
</svg>
