<svg width="35" height="33" viewBox="0 0 35 33" fill="none" xmlns="http://www.w3.org/2000/svg">
<path d="M33.3914 11.8778H25.542L20.0242 1.23855C19.8263 0.857102 19.4919 0.57553 19.0822 0.445647C18.6726 0.315764 18.237 0.353225 17.8555 0.551057C17.7229 0.619827 17.6042 0.704866 17.5 0.802141C17.3957 0.704934 17.277 0.619827 17.1444 0.551057C16.763 0.353225 16.3273 0.315833 15.9177 0.445647C15.5081 0.575462 15.1736 0.857102 14.9758 1.23855L9.15961 12.453C8.96178 12.8345 8.92432 13.2701 9.0542 13.6797C9.0985 13.8195 9.1618 13.9498 9.23945 14.0697H1.60863C1.287 14.0697 1.02539 13.8081 1.02539 13.4864C1.02539 13.1649 1.28707 12.9032 1.60863 12.9032H7.4537C7.73685 12.9032 7.9664 12.6737 7.9664 12.3905C7.9664 12.1073 7.73685 11.8778 7.4537 11.8778H1.60863C0.72167 11.8778 0 12.5995 0 13.4864C0 14.222 0.496426 14.8434 1.17175 15.0343L4.14121 30.8711C4.33228 31.8905 5.22375 32.6303 6.2609 32.6303H28.7392C29.7763 32.6303 30.6677 31.8905 30.8589 30.8711L33.8283 15.0342C34.5036 14.8434 35 14.222 35 13.4864C35 12.5994 34.2783 11.8778 33.3914 11.8778ZM18.3276 1.4614C18.4659 1.38969 18.6239 1.37609 18.7724 1.42319C18.9209 1.47022 19.0422 1.57235 19.1139 1.71064L24.93 12.9252C25.0018 13.0635 25.0154 13.2215 24.9683 13.3699C24.9212 13.5185 24.8191 13.6398 24.6807 13.7115C24.5425 13.7832 24.3845 13.7968 24.236 13.7497C24.0875 13.7027 23.9662 13.6006 23.8945 13.4623L18.0784 2.24767C17.9303 1.9622 18.0422 1.60947 18.3276 1.4614ZM25.1548 15.0951L24.6697 20.0975H18.0127V15.0951H25.1548ZM17.5 3.3596L22.9843 13.9342C23.0085 13.981 23.0349 14.0261 23.0632 14.0697H11.9368C11.9651 14.0261 11.9915 13.981 12.0157 13.9343L12.5504 12.9033H20.354C20.6371 12.9033 20.8667 12.6738 20.8667 12.3906C20.8667 12.1074 20.6371 11.8779 20.354 11.8779H13.0822L17.5 3.3596ZM10.0699 12.9251L15.8861 1.71057C15.9578 1.57228 16.0791 1.47015 16.2276 1.42312C16.2857 1.40466 16.3453 1.39557 16.4045 1.39557C16.4968 1.39557 16.5882 1.41772 16.6724 1.46133C16.9578 1.60947 17.0697 1.96213 16.9216 2.2476L11.1054 13.4622C11.0337 13.6005 10.9124 13.7026 10.7639 13.7496C10.6155 13.7966 10.4575 13.7831 10.3191 13.7113C10.1808 13.6396 10.0787 13.5184 10.0317 13.3698C9.98457 13.2214 9.99817 13.0635 10.0699 12.9251ZM2.2264 15.0951H8.81501L9.30016 20.0975H3.16436L2.2264 15.0951ZM3.35665 21.1229H9.39962L9.88477 26.1252H4.29454L3.35665 21.1229ZM6.26083 31.605C5.71683 31.605 5.24925 31.2169 5.14903 30.6822L4.48684 27.1506H9.98416L10.4162 31.605H6.26083ZM16.9873 31.605H11.4463L11.0143 27.1506H16.9873V31.605ZM16.9873 26.1252H10.9149L10.4297 21.1229H16.9873V26.1252ZM16.9873 20.0975H10.3303L9.84519 15.0951H16.9873V20.0975ZM23.5537 31.605H18.0127V27.1506H23.9857L23.5537 31.605ZM24.0851 26.1253H18.0127V21.1229H24.5703L24.0851 26.1253ZM29.851 30.6822C29.7508 31.2169 29.2831 31.605 28.7391 31.605H24.5838L25.0158 27.1506H30.5132L29.851 30.6822ZM30.7055 26.1253H25.1153L25.6004 21.1229H31.6434L30.7055 26.1253ZM31.8356 20.0975H25.6999L26.1851 15.0951H32.7736L31.8356 20.0975ZM33.3914 14.0697H33.383C33.3827 14.0697 33.3824 14.0697 33.3821 14.0697H25.7605C25.8382 13.9499 25.9014 13.8196 25.9458 13.6798C26.0267 13.4246 26.0426 13.1593 25.9953 12.9033H33.3914C33.713 12.9033 33.9746 13.1649 33.9746 13.4865C33.9746 13.8081 33.7129 14.0697 33.3914 14.0697Z" fill="#433434"/>
</svg>
